<?xml version="1.0" encoding="UTF-8" standalone="no"?>
<svg
   xmlns:dc="http://purl.org/dc/elements/1.1/"
   xmlns:cc="http://creativecommons.org/ns#"
   xmlns:rdf="http://www.w3.org/1999/02/22-rdf-syntax-ns#"
   xmlns:svg="http://www.w3.org/2000/svg"
   xmlns="http://www.w3.org/2000/svg"
   xmlns:sodipodi="http://sodipodi.sourceforge.net/DTD/sodipodi-0.dtd"
   xmlns:inkscape="http://www.inkscape.org/namespaces/inkscape"
   width="260.04501"
   height="44.466"
   viewBox="0 0 68.803572 11.764962"
   version="1.1"
   id="svg898"
   sodipodi:docname="tour-o-miami-logo-new22.svg"
   inkscape:version="0.92.4 (5da689c313, 2019-01-14)">
  <sodipodi:namedview
     pagecolor="#ffffff"
     bordercolor="#666666"
     borderopacity="1"
     objecttolerance="10"
     gridtolerance="10"
     guidetolerance="10"
     inkscape:pageopacity="0"
     inkscape:pageshadow="2"
     inkscape:window-width="1366"
     inkscape:window-height="705"
     id="namedview35"
     showgrid="false"
     inkscape:zoom="0.89726538"
     inkscape:cx="227.95992"
     inkscape:cy="115.31205"
     inkscape:window-x="-8"
     inkscape:window-y="-8"
     inkscape:window-maximized="1"
     inkscape:current-layer="svg898"
     units="px" />
  <defs
     id="defs892" />
  <metadata
     id="metadata895">
    <rdf:RDF>
      <cc:Work
         rdf:about="">
        <dc:format>image/svg+xml</dc:format>
        <dc:type
           rdf:resource="http://purl.org/dc/dcmitype/StillImage" />
        <dc:title></dc:title>
      </cc:Work>
    </rdf:RDF>
  </metadata>
  <g
     transform="matrix(1.1396252,0,0,1.1396252,-72.126919,650.69182)"
     id="g125">
    <g
       id="g123">
      <path
         style="fill:#d45500;fill-opacity:0.95686275;stroke-width:0.02065222"
         d="m 90.147126,-569.1573 c -0.0021,0 -0.0041,0 -0.0041,0 0,0 0,0 0,0 -0.01446,0 -0.02685,-0.004 -0.03924,-0.008 -0.09293,-0.0413 -0.07228,-0.16315 -0.06402,-0.22304 0,-0.004 0.0021,-0.008 0.0021,-0.0124 0.0062,-0.0537 0.02065,-0.10326 0.03304,-0.15076 0.03924,-0.14663 0.08261,-0.29327 0.125978,-0.43577 0.08467,-0.28087 0.171414,-0.57206 0.214783,-0.86326 0.0021,-0.0165 0.01446,-0.0764 0.06402,-0.10532 0.02685,-0.0165 0.05989,-0.0186 0.08881,-0.006 0.03717,0.0145 0.0537,0.0475 0.05989,0.0599 0.128044,0.24783 0.247827,0.50598 0.355218,0.76413 0.05989,0.1425 0.115653,0.28913 0.169349,0.4337 0.02685,0.0723 0.05163,0.14663 0.07641,0.21891 0.0021,0.004 0.0041,0.008 0.0062,0.0124 0.0062,0.0165 0.01446,0.0372 0.01859,0.0599 0.0041,0.0289 -0.0041,0.0578 -0.02478,0.0785 -0.03098,0.0351 -0.07641,0.0331 -0.09913,0.0331 -0.0021,0 -0.0041,0 -0.0062,0 -0.02685,0.002 -0.05576,0.004 -0.08261,0.006 -0.262284,0.0186 -0.567936,0.0454 -0.850872,0.13011 -0.01446,0.004 -0.02685,0.008 -0.04337,0.008 z m 0.404784,-1.53652 c -0.0475,0.25609 -0.123913,0.50804 -0.198261,0.75174 -0.04337,0.14043 -0.08674,0.28706 -0.123914,0.42957 -0.01033,0.0434 -0.02272,0.0888 -0.02891,0.13217 0,0.004 -0.0021,0.0103 -0.0021,0.0165 0,0.006 -0.0021,0.0165 -0.0041,0.0269 0.282935,-0.0785 0.578262,-0.10326 0.834349,-0.12185 0.01239,0 0.02478,-0.002 0.03717,-0.002 -0.02272,-0.064 -0.04543,-0.12805 -0.06815,-0.19 -0.05163,-0.1425 -0.107392,-0.28707 -0.167283,-0.42751 -0.08467,-0.20652 -0.177609,-0.41304 -0.278805,-0.61543 z"
         id="path83"
         inkscape:connector-curvature="0" />
      <path
         style="fill:#d45500;fill-opacity:0.95686275;stroke-width:0.02065222"
         d="m 92.633654,-569.06849 c -0.02685,0 -0.05163,-0.0103 -0.06402,-0.0186 -0.0021,0 -0.0041,-0.002 -0.0062,-0.002 -0.02478,-0.0103 -0.05163,-0.0186 -0.07848,-0.0289 -0.247827,-0.0909 -0.536958,-0.19206 -0.830219,-0.22924 -0.01033,-0.002 -0.02685,-0.004 -0.04544,-0.0124 0,0 0,0 0,0 -0.01239,-0.006 -0.02272,-0.0145 -0.03098,-0.0248 -0.06609,-0.0764 0,-0.17968 0.03304,-0.22924 0.0021,-0.004 0.0041,-0.008 0.0062,-0.0103 0.02891,-0.0454 0.06196,-0.0867 0.09087,-0.12598 0.095,-0.11771 0.196196,-0.23337 0.293262,-0.34695 0.192065,-0.22098 0.390327,-0.45022 0.549349,-0.70011 0.01033,-0.0145 0.04543,-0.064 0.101196,-0.0702 0.03098,-0.002 0.06196,0.008 0.08261,0.031 0.02891,0.0289 0.02891,0.064 0.03098,0.0785 0.01446,0.2788 0.01859,0.5638 0.01033,0.84261 -0.0041,0.15489 -0.01239,0.31185 -0.02272,0.46467 -0.0062,0.0764 -0.01239,0.15489 -0.01859,0.23131 0,0.004 0,0.0103 0,0.0145 0,0.0186 -0.0021,0.0392 -0.0083,0.062 -0.0083,0.0289 -0.02891,0.0516 -0.0537,0.062 -0.01446,0.0103 -0.02685,0.0124 -0.03924,0.0124 z m -0.902502,-0.43163 c 0.291196,0.0454 0.570001,0.1425 0.809567,0.2313 0.01239,0.004 0.02272,0.008 0.03511,0.0124 0.0062,-0.0681 0.01239,-0.13424 0.01652,-0.20032 0.01033,-0.15283 0.01859,-0.30566 0.02272,-0.45848 0.0062,-0.22511 0.0062,-0.45229 -0.0041,-0.6774 -0.148696,0.21479 -0.320109,0.41305 -0.487392,0.60511 -0.09707,0.11153 -0.196196,0.22718 -0.289131,0.34283 -0.02685,0.0351 -0.05576,0.0702 -0.08054,0.10946 -0.0021,0.004 -0.0062,0.008 -0.0083,0.0145 -0.0021,0 -0.0083,0.0103 -0.01446,0.0207 z"
         id="path85"
         inkscape:connector-curvature="0" />
      <path
         style="fill:#d45500;fill-opacity:0.95686275;stroke-width:0.02065222"
         d="m 93.885178,-568.2486 c 0,0 -0.0021,0 0,0 -0.04957,0 -0.07848,-0.0351 -0.09087,-0.0516 -0.0021,-0.002 -0.0021,-0.004 -0.0041,-0.004 -0.01859,-0.0186 -0.03924,-0.0392 -0.05989,-0.0578 -0.187936,-0.1838 -0.41098,-0.39445 -0.662937,-0.54935 -0.0083,-0.004 -0.02272,-0.0145 -0.03717,-0.031 v 0 c -0.0083,-0.0103 -0.01446,-0.0227 -0.01859,-0.0351 -0.03098,-0.0971 0.07435,-0.16315 0.123914,-0.1962 0.0041,-0.002 0.0083,-0.004 0.01033,-0.006 0.04543,-0.031 0.09087,-0.0537 0.134239,-0.0764 0.13424,-0.0681 0.274675,-0.13424 0.408914,-0.19619 0.266414,-0.12392 0.541088,-0.25196 0.788915,-0.41305 0.01446,-0.0103 0.06815,-0.0392 0.121848,-0.0227 0.02891,0.0103 0.0537,0.0331 0.06402,0.062 0.01446,0.0372 0,0.0723 -0.0041,0.0847 -0.101196,0.26021 -0.214784,0.52043 -0.336632,0.77239 -0.06815,0.13837 -0.13837,0.2788 -0.212718,0.41511 -0.03717,0.0682 -0.07435,0.1363 -0.113587,0.20446 -0.0021,0.004 -0.0041,0.008 -0.0062,0.0124 -0.0083,0.0165 -0.01652,0.0351 -0.03304,0.0537 -0.01859,0.0227 -0.04543,0.0351 -0.07228,0.0351 z m -0.685653,-0.77446 c 0.245761,0.16109 0.460544,0.36348 0.644349,0.54316 0.0083,0.008 0.01859,0.0165 0.02685,0.0268 0.03304,-0.0578 0.06609,-0.11771 0.09707,-0.1776 0.07228,-0.13424 0.1425,-0.27055 0.208588,-0.40892 0.09707,-0.20239 0.19,-0.40891 0.274674,-0.61957 -0.223044,0.13424 -0.46261,0.2437 -0.691849,0.35109 -0.13424,0.062 -0.27261,0.12598 -0.404784,0.19413 -0.03924,0.0207 -0.08054,0.0413 -0.117717,0.0661 -0.0041,0.002 -0.0083,0.006 -0.01446,0.008 -0.0041,0.004 -0.01239,0.0103 -0.02272,0.0165 z"
         id="path87"
         inkscape:connector-curvature="0" />
      <path
         style="fill:#d45500;fill-opacity:0.95686275;stroke-width:0.02065222"
         d="m 94.690615,-566.98881 c -0.01446,0 -0.02685,-0.002 -0.03924,-0.008 -0.04337,-0.0207 -0.05576,-0.064 -0.06196,-0.0847 0,-0.002 -0.0021,-0.004 -0.0021,-0.006 -0.01033,-0.0248 -0.02065,-0.0516 -0.03098,-0.0764 -0.09707,-0.24576 -0.212717,-0.52869 -0.38,-0.77239 -0.0062,-0.008 -0.01652,-0.0227 -0.02065,-0.0434 -0.0041,-0.0124 -0.0041,-0.0268 -0.0021,-0.0413 0.01239,-0.0991 0.13424,-0.11772 0.192066,-0.12598 0.0041,0 0.0083,-0.002 0.01239,-0.002 0.0537,-0.008 0.105326,-0.0124 0.154892,-0.0145 0.150761,-0.008 0.305653,-0.008 0.454349,-0.0103 0.293261,-0.004 0.596849,-0.006 0.888045,-0.0537 0.01652,-0.002 0.07848,-0.008 0.119783,0.031 0.02272,0.0206 0.03511,0.0516 0.03304,0.0826 -0.0041,0.0413 -0.02891,0.0661 -0.03924,0.0764 -0.198261,0.1962 -0.408914,0.38827 -0.623697,0.56794 -0.117717,0.0991 -0.239566,0.19826 -0.363479,0.2912 -0.06196,0.0475 -0.123913,0.095 -0.18587,0.14043 -0.0041,0.002 -0.0083,0.006 -0.01033,0.008 -0.01446,0.0103 -0.03098,0.0248 -0.05163,0.0351 -0.01446,0.002 -0.02891,0.006 -0.04337,0.006 z m -0.349023,-0.99544 c 0.159022,0.24783 0.27261,0.52044 0.365545,0.75794 0.0041,0.0124 0.0083,0.0227 0.01446,0.0351 0.0537,-0.0392 0.107392,-0.0805 0.161087,-0.12184 0.121849,-0.0929 0.241631,-0.19 0.357284,-0.28707 0.171413,-0.14456 0.340762,-0.29533 0.503914,-0.45228 -0.260218,0.031 -0.520436,0.033 -0.776523,0.0372 -0.146631,0.002 -0.299458,0.004 -0.448154,0.0103 -0.04337,0.002 -0.09087,0.004 -0.134239,0.0124 -0.0041,0 -0.01033,0.002 -0.01652,0.002 -0.0041,0.002 -0.01446,0.004 -0.02685,0.006 z"
         id="path89"
         inkscape:connector-curvature="0" />
      <path
         style="fill:#d45500;fill-opacity:0.95686275;stroke-width:0.02065222"
         d="m 94.911594,-565.51011 c -0.02891,0 -0.05576,-0.0124 -0.07435,-0.033 -0.03098,-0.0351 -0.02478,-0.0805 -0.02065,-0.10119 0,-0.002 0,-0.004 0,-0.006 0.0021,-0.0269 0.0021,-0.0558 0.0041,-0.0826 0.01239,-0.26435 0.02272,-0.57 -0.02891,-0.8612 -0.0021,-0.0103 -0.0041,-0.0268 -0.0021,-0.0475 0.0021,-0.0145 0.0062,-0.0268 0.01446,-0.0372 0.05163,-0.0867 0.171413,-0.0537 0.227174,-0.0372 0.0041,0.002 0.0083,0.002 0.01239,0.004 0.05163,0.0145 0.101196,0.033 0.146631,0.0496 0.140435,0.0558 0.282935,0.11772 0.41924,0.17555 0.268479,0.11771 0.547283,0.2375 0.832284,0.31597 0.01652,0.004 0.07435,0.0227 0.09707,0.0764 0.01239,0.0289 0.01033,0.062 -0.0041,0.0888 -0.01859,0.0351 -0.0537,0.0475 -0.06609,0.0537 -0.262283,0.0971 -0.530762,0.18587 -0.801306,0.26228 -0.148696,0.0413 -0.299457,0.0805 -0.450219,0.11772 -0.07435,0.0186 -0.150761,0.0351 -0.227174,0.0516 -0.0041,0 -0.0083,0.002 -0.01446,0.004 -0.01859,0 -0.03924,0.006 -0.06402,0.006 0,0 0,0 0,0 z m 0.0475,-1.0574 c 0.04337,0.2912 0.03511,0.58652 0.02272,0.84261 0,0.0124 -0.0021,0.0248 -0.0021,0.0372 0.06609,-0.0145 0.132174,-0.0289 0.196196,-0.0454 0.148696,-0.0351 0.297392,-0.0743 0.444023,-0.11565 0.216848,-0.062 0.431631,-0.13011 0.644349,-0.20652 -0.249892,-0.0785 -0.489458,-0.18174 -0.722828,-0.285 -0.134239,-0.0578 -0.274674,-0.11979 -0.413044,-0.17348 -0.04131,-0.0165 -0.08467,-0.0331 -0.128044,-0.0434 -0.0041,-0.002 -0.01033,-0.002 -0.01652,-0.004 -0.0021,-0.002 -0.01239,-0.004 -0.02478,-0.006 z"
         id="path91"
         inkscape:connector-curvature="0" />
      <path
         style="fill:#d45500;fill-opacity:0.95686275;stroke-width:0.02065222"
         d="m 96.080509,-563.84555 c -0.0062,0 -0.01033,0 -0.01239,0 -0.278805,-0.0186 -0.56174,-0.0475 -0.83848,-0.0888 -0.152827,-0.0227 -0.307718,-0.0496 -0.458479,-0.0785 -0.07641,-0.0145 -0.152827,-0.031 -0.22924,-0.0475 -0.0041,0 -0.0083,-0.002 -0.01446,-0.002 -0.01652,-0.002 -0.03924,-0.006 -0.05989,-0.0165 -0.02685,-0.0124 -0.0475,-0.033 -0.05576,-0.0619 -0.01446,-0.0454 0.01033,-0.0826 0.02272,-0.1012 0.0021,-0.002 0.0021,-0.004 0.0041,-0.006 0.01239,-0.0248 0.02478,-0.0496 0.03717,-0.0744 0.119783,-0.23544 0.254022,-0.51011 0.326305,-0.79718 0.0021,-0.0103 0.0062,-0.0269 0.01859,-0.0434 0.0083,-0.0124 0.01652,-0.0207 0.02891,-0.0289 0.08261,-0.0578 0.177609,0.0227 0.223044,0.0599 0.0041,0.004 0.0062,0.006 0.01033,0.008 0.0413,0.0331 0.07848,0.0702 0.113587,0.10533 0.105327,0.10739 0.208588,0.22304 0.309784,0.3325 0.198261,0.21685 0.402718,0.44196 0.629892,0.62783 0.01446,0.0103 0.05783,0.0516 0.05783,0.10945 0,0.031 -0.01446,0.0599 -0.0413,0.0785 -0.02891,0.0206 -0.05576,0.0248 -0.07228,0.0248 z m -1.478699,-0.36761 c 0.06609,0.0145 0.132175,0.0268 0.198262,0.0392 0.148696,0.0289 0.301522,0.0537 0.452283,0.0764 0.223044,0.033 0.448153,0.0578 0.673263,0.0764 -0.194131,-0.17348 -0.37174,-0.36761 -0.543154,-0.55554 -0.09913,-0.10946 -0.202392,-0.22098 -0.305653,-0.32837 -0.03098,-0.031 -0.06402,-0.064 -0.09913,-0.0929 -0.0041,-0.002 -0.0083,-0.006 -0.01239,-0.0103 -0.0041,-0.004 -0.01239,-0.0103 -0.02272,-0.0186 -0.07848,0.28293 -0.208587,0.54935 -0.32424,0.77652 -0.0062,0.0145 -0.01033,0.0248 -0.01652,0.0372 z"
         id="path93"
         inkscape:connector-curvature="0" />
      <path
         style="fill:#d45500;fill-opacity:0.95686275;stroke-width:0.02065222"
         d="m 94.899202,-562.07152 c -0.02891,0 -0.05163,-0.0124 -0.05989,-0.0165 -0.247827,-0.13011 -0.491523,-0.27468 -0.729024,-0.42544 -0.130109,-0.0826 -0.260218,-0.17141 -0.386196,-0.26022 -0.06402,-0.0454 -0.128044,-0.0909 -0.19,-0.1363 -0.0041,-0.002 -0.0083,-0.006 -0.01239,-0.008 -0.01446,-0.0103 -0.03304,-0.0206 -0.04957,-0.0392 -0.02065,-0.0227 -0.02891,-0.0496 -0.02478,-0.0785 0.0062,-0.0475 0.04337,-0.0723 0.06196,-0.0826 0.0021,-0.002 0.0041,-0.002 0.0062,-0.004 0.02065,-0.0165 0.04337,-0.0351 0.06402,-0.0516 0.204457,-0.16522 0.439893,-0.36141 0.623697,-0.59272 0.0083,-0.0103 0.01859,-0.0227 0.03511,-0.033 v 0 c 0.01239,-0.008 0.02478,-0.0124 0.03717,-0.0145 0.09913,-0.0186 0.152827,0.0929 0.179675,0.14663 0.0021,0.004 0.0041,0.008 0.0062,0.0103 0.02478,0.0475 0.04337,0.0971 0.05989,0.1425 0.05163,0.1425 0.09913,0.28913 0.14663,0.42957 0.09087,0.2788 0.18587,0.56793 0.318045,0.83228 0.0083,0.0165 0.03098,0.0723 0.0083,0.12391 -0.01239,0.0289 -0.03924,0.0496 -0.07022,0.0558 -0.01033,0.002 -0.01859,0.002 -0.02478,0.002 z m -1.247394,-0.95207 c 0.0537,0.0392 0.109457,0.0785 0.163153,0.11772 0.123913,0.0867 0.251957,0.17348 0.382066,0.25609 0.19,0.12185 0.384131,0.2375 0.582392,0.34489 -0.107391,-0.2375 -0.187935,-0.48739 -0.268478,-0.72902 -0.04543,-0.14044 -0.09293,-0.285 -0.144566,-0.42337 -0.01446,-0.0413 -0.03098,-0.0847 -0.05163,-0.12392 -0.0021,-0.004 -0.0041,-0.008 -0.0062,-0.0145 -0.0021,-0.006 -0.0062,-0.0145 -0.01239,-0.0248 -0.187935,0.22511 -0.415109,0.41511 -0.615436,0.5762 -0.01033,0.006 -0.02065,0.0145 -0.02891,0.0206 z"
         id="path95"
         inkscape:connector-curvature="0" />
      <path
         style="fill:#d45500;fill-opacity:0.95686275;stroke-width:0.02065222"
         d="m 93.085937,-560.93771 c -0.0062,0 -0.01446,0 -0.02065,-0.002 -0.03924,-0.008 -0.06196,-0.0372 -0.07022,-0.0475 -0.171414,-0.22098 -0.336632,-0.45228 -0.489458,-0.68565 -0.08467,-0.13011 -0.167283,-0.26229 -0.247827,-0.39446 -0.03924,-0.0661 -0.07848,-0.13424 -0.117717,-0.20239 -0.0021,-0.004 -0.0041,-0.008 -0.0083,-0.0124 -0.01033,-0.0145 -0.02065,-0.0331 -0.02891,-0.0558 -0.0083,-0.0289 -0.0062,-0.0578 0.0083,-0.0826 0.02478,-0.0413 0.06815,-0.0475 0.09087,-0.0516 0.0021,0 0.0041,0 0.0062,-0.002 0.02685,-0.006 0.0537,-0.0145 0.08054,-0.0207 0.256087,-0.0661 0.549349,-0.1487 0.811632,-0.285 0.01239,-0.006 0.02685,-0.0124 0.04544,-0.0165 0.01446,-0.002 0.02685,-0.002 0.03924,0.002 0.09913,0.0248 0.101196,0.14663 0.103261,0.20652 0,0.004 0,0.008 0,0.0124 0.0021,0.0537 0,0.10532 -0.0041,0.15489 -0.01033,0.15076 -0.02685,0.30359 -0.04337,0.45228 -0.03098,0.2912 -0.06402,0.59272 -0.05163,0.88805 0,0.0186 0,0.0785 -0.04337,0.11565 -0.01239,0.0186 -0.03511,0.0268 -0.05989,0.0268 z m -0.788914,-1.38783 c 0.03304,0.0578 0.06815,0.11772 0.101195,0.17554 0.07848,0.13011 0.159023,0.26228 0.243697,0.38826 0.123913,0.18794 0.254022,0.37381 0.390327,0.55348 0,-0.26022 0.02685,-0.5225 0.0537,-0.77446 0.01652,-0.14663 0.03098,-0.29739 0.0413,-0.44608 0.0021,-0.0434 0.0062,-0.0909 0.0041,-0.13424 0,-0.004 0,-0.0103 0,-0.0165 0,-0.006 0,-0.0165 -0.0021,-0.0289 -0.264348,0.12805 -0.549349,0.20859 -0.797176,0.27468 -0.01239,0.002 -0.02272,0.004 -0.03511,0.008 z"
         id="path97"
         inkscape:connector-curvature="0" />
      <path
         style="fill:#d45500;fill-opacity:0.95686275;stroke-width:0.02065222"
         d="m 90.969085,-560.64652 c -0.02065,0 -0.04131,-0.006 -0.05989,-0.0186 -0.03304,-0.0227 -0.0413,-0.0599 -0.04543,-0.0723 -0.06609,-0.27261 -0.121848,-0.54935 -0.167282,-0.82609 -0.02478,-0.15282 -0.04543,-0.30771 -0.06402,-0.4626 -0.0083,-0.0764 -0.01652,-0.1549 -0.02478,-0.23131 0,-0.004 -0.0021,-0.0103 -0.0021,-0.0145 -0.0021,-0.0165 -0.0062,-0.0392 -0.0041,-0.062 0.0041,-0.0289 0.01859,-0.0558 0.04131,-0.0702 0.03924,-0.0269 0.08261,-0.0145 0.103261,-0.0103 0.0021,0 0.0041,0.002 0.0062,0.002 0.02685,0.004 0.0537,0.008 0.08054,0.0145 0.260218,0.0434 0.561741,0.0888 0.859133,0.0723 0.01446,0 0.03098,0 0.0475,0.004 0.01239,0.004 0.02478,0.0103 0.03511,0.0186 0.08054,0.062 0.03304,0.17554 0.01033,0.2313 -0.0021,0.004 -0.0041,0.008 -0.0041,0.0124 -0.01859,0.0496 -0.04337,0.0971 -0.06609,0.14044 -0.07228,0.13424 -0.148696,0.26641 -0.223044,0.39445 -0.148696,0.25403 -0.301522,0.51631 -0.410979,0.78892 -0.0062,0.0165 -0.03304,0.0702 -0.08674,0.0867 -0.0062,0 -0.01652,0.002 -0.02478,0.002 z m -0.194131,-1.59848 c 0.0062,0.0661 0.01239,0.13424 0.02065,0.20033 0.01652,0.15076 0.03924,0.30359 0.06196,0.45435 0.03511,0.22304 0.07848,0.44402 0.128044,0.665 0.107391,-0.2375 0.239565,-0.46468 0.367609,-0.68359 0.07435,-0.12804 0.150761,-0.25815 0.220979,-0.39033 0.02065,-0.0392 0.04337,-0.0805 0.05783,-0.12185 0.0021,-0.004 0.0041,-0.008 0.0062,-0.0145 0.0021,-0.006 0.0062,-0.0145 0.01033,-0.0268 -0.293262,0.0103 -0.586523,-0.0351 -0.83848,-0.0764 -0.01033,-0.002 -0.02272,-0.004 -0.03511,-0.006 z"
         id="path99"
         inkscape:connector-curvature="0" />
      <path
         style="fill:#d45500;fill-opacity:0.95686275;stroke-width:0.02065222"
         d="m 88.918319,-561.24956 c -0.0041,0 -0.01033,0 -0.01446,0 -0.03098,-0.004 -0.05783,-0.0227 -0.07435,-0.0496 -0.02065,-0.0351 -0.01446,-0.0702 -0.01033,-0.0847 0.05163,-0.27468 0.113587,-0.55142 0.187935,-0.82196 0.0413,-0.1487 0.08467,-0.29946 0.132174,-0.44609 0.02272,-0.0743 0.0475,-0.14869 0.07228,-0.22098 0.0021,-0.004 0.0021,-0.008 0.0041,-0.0145 0.0041,-0.0165 0.01033,-0.0372 0.02272,-0.0578 0.01446,-0.0248 0.03924,-0.0434 0.06815,-0.0475 0.0475,-0.008 0.08054,0.0207 0.09913,0.033 0.0021,0.002 0.0041,0.002 0.0062,0.004 0.02272,0.0145 0.04543,0.031 0.06815,0.0454 0.218913,0.14663 0.477066,0.31185 0.753806,0.41717 0.0083,0.004 0.02685,0.0103 0.0413,0.0227 0.01033,0.008 0.01859,0.0186 0.02478,0.031 0.0475,0.0888 -0.04337,0.17348 -0.08674,0.21478 -0.0041,0.004 -0.0062,0.006 -0.0083,0.008 -0.03924,0.0372 -0.07848,0.0702 -0.117718,0.1012 -0.119783,0.0929 -0.245761,0.18174 -0.365544,0.26848 -0.239566,0.17141 -0.485327,0.34696 -0.698045,0.55141 -0.01652,0.0124 -0.05576,0.0454 -0.105327,0.0454 z m 0.435762,-1.54479 c -0.02065,0.064 -0.04337,0.12805 -0.06402,0.19207 -0.04543,0.14456 -0.0888,0.29326 -0.130109,0.43989 -0.05783,0.21685 -0.111522,0.43783 -0.154891,0.65881 0.194131,-0.17348 0.408914,-0.32631 0.615436,-0.47294 0.119783,-0.0847 0.243696,-0.17348 0.361414,-0.26435 0.03511,-0.0269 0.07228,-0.0558 0.103261,-0.0867 0.0041,-0.004 0.0062,-0.006 0.01239,-0.0103 0.0041,-0.004 0.01239,-0.0103 0.02065,-0.0186 -0.272609,-0.11152 -0.520436,-0.27054 -0.733153,-0.41304 -0.01033,-0.0124 -0.02065,-0.0186 -0.03098,-0.0248 z"
         id="path101"
         inkscape:connector-curvature="0" />
      <path
         style="fill:#d45500;fill-opacity:0.95686275;stroke-width:0.02065222"
         d="m 87.303316,-562.63533 c -0.02065,0 -0.04337,-0.004 -0.06609,-0.0165 -0.02685,-0.0165 -0.04337,-0.0434 -0.0475,-0.0743 -0.0041,-0.0392 0.01652,-0.0702 0.02478,-0.0805 0.159022,-0.22924 0.330436,-0.45641 0.508045,-0.67326 0.09707,-0.11978 0.200326,-0.23957 0.303587,-0.35315 0.05163,-0.0578 0.105327,-0.11566 0.156957,-0.17142 0.0021,-0.004 0.0062,-0.006 0.01033,-0.0103 0.01033,-0.0145 0.02478,-0.031 0.04543,-0.0434 0.02478,-0.0165 0.0537,-0.0227 0.08054,-0.0165 0.04543,0.0124 0.06609,0.0516 0.07641,0.0702 0.0021,0.002 0.0021,0.004 0.0021,0.006 0.01446,0.0227 0.02891,0.0475 0.04337,0.0702 0.140435,0.22304 0.307718,0.47913 0.516306,0.68978 0.01033,0.0103 0.02065,0.0227 0.02891,0.0392 0.0062,0.0124 0.01033,0.0248 0.01033,0.0392 0.0062,0.10119 -0.109457,0.14043 -0.165218,0.16109 -0.0041,0.002 -0.0083,0.002 -0.01239,0.004 -0.05163,0.0186 -0.101196,0.031 -0.148696,0.0434 -0.146631,0.0351 -0.297392,0.0661 -0.444023,0.095 -0.287066,0.0578 -0.584458,0.11771 -0.863263,0.21684 -0.01033,-0.004 -0.03304,0.004 -0.05989,0.004 z m 0.98098,-1.24326 c -0.04543,0.0496 -0.09087,0.0991 -0.136304,0.1487 -0.101196,0.11358 -0.202392,0.2313 -0.297392,0.34902 -0.142501,0.17348 -0.280871,0.35522 -0.41098,0.53696 0.249892,-0.0785 0.50598,-0.13011 0.755872,-0.17968 0.144565,-0.0289 0.293261,-0.0599 0.437827,-0.0929 0.04337,-0.0103 0.0888,-0.0206 0.130109,-0.0372 0.0041,-0.002 0.01033,-0.004 0.01446,-0.006 0.0062,-0.002 0.01652,-0.006 0.02685,-0.0103 -0.202392,-0.21272 -0.363479,-0.46054 -0.499784,-0.67739 -0.0083,-0.0103 -0.01446,-0.0206 -0.02065,-0.031 z"
         id="path103"
         inkscape:connector-curvature="0" />
      <path
         style="fill:#d45500;fill-opacity:0.95686275;stroke-width:0.02065222"
         d="m 87.984839,-567.1086 c -0.07228,0 -0.132174,-0.0723 -0.163153,-0.10945 -0.0021,-0.004 -0.0062,-0.006 -0.0083,-0.0103 -0.03511,-0.0413 -0.06402,-0.0847 -0.09087,-0.12598 -0.08467,-0.12598 -0.165218,-0.25609 -0.241631,-0.38413 -0.154892,-0.24989 -0.313914,-0.50804 -0.501849,-0.73522 -0.01239,-0.0145 -0.0475,-0.062 -0.03511,-0.11772 0.0062,-0.031 0.02685,-0.0558 0.0537,-0.0702 0.03717,-0.0186 0.07228,-0.008 0.08467,-0.006 0.270544,0.0702 0.543153,0.15076 0.807502,0.2437 0.146631,0.0496 0.293261,0.10532 0.437827,0.16108 0.07228,0.0289 0.144565,0.0578 0.214783,0.0888 0.0041,0.002 0.0083,0.004 0.01446,0.004 0.01652,0.006 0.03717,0.0124 0.05576,0.0268 0.02478,0.0165 0.03924,0.0413 0.04337,0.0702 0.0041,0.0475 -0.02478,0.0805 -0.0413,0.095 -0.0021,0.002 -0.0041,0.004 -0.0041,0.004 -0.01652,0.0207 -0.03304,0.0434 -0.05163,0.0661 -0.161088,0.20859 -0.342827,0.45435 -0.468806,0.72283 -0.0041,0.008 -0.01239,0.0248 -0.02685,0.0392 v 0 c -0.01033,0.0103 -0.02065,0.0186 -0.03304,0.0227 -0.01652,0.0124 -0.03098,0.0145 -0.04544,0.0145 z m -0.797176,-1.35891 c 0.159022,0.20652 0.297392,0.42956 0.429567,0.64641 0.07641,0.12598 0.156956,0.25402 0.239565,0.37794 0.02478,0.0372 0.05163,0.0743 0.08054,0.10945 0.0021,0.004 0.0062,0.008 0.01033,0.0124 0.0041,0.004 0.01033,0.0124 0.01859,0.0207 0.130109,-0.26435 0.305653,-0.49979 0.46261,-0.70424 0.0083,-0.0103 0.01446,-0.0206 0.02272,-0.0289 -0.06196,-0.0268 -0.125978,-0.0516 -0.187935,-0.0764 -0.1425,-0.0558 -0.287066,-0.10946 -0.429566,-0.15902 -0.212718,-0.0723 -0.429566,-0.14044 -0.646415,-0.19826 z"
         id="path105"
         inkscape:connector-curvature="0" />
      <path
         style="fill:#d45500;fill-opacity:0.95686275;stroke-width:0.02065222"
         d="m 88.848102,-568.36425 c -0.0021,0 -0.0021,0 0,0 -0.101196,0 -0.13424,-0.11978 -0.148696,-0.17761 -0.0021,-0.004 -0.0021,-0.008 -0.0041,-0.0124 -0.01446,-0.0516 -0.02478,-0.10326 -0.03304,-0.15076 -0.02478,-0.1487 -0.04543,-0.30153 -0.06402,-0.45022 -0.03717,-0.2912 -0.07641,-0.59272 -0.156957,-0.87566 -0.0041,-0.0165 -0.01859,-0.0764 0.01652,-0.12184 0.01859,-0.0248 0.0475,-0.0413 0.07848,-0.0413 0.0413,-0.002 0.06815,0.0206 0.08054,0.0289 0.218913,0.17554 0.433697,0.36141 0.636088,0.55347 0.113588,0.10533 0.22511,0.21479 0.332501,0.32631 0.0537,0.0558 0.107392,0.11152 0.161087,0.16935 0.0021,0.004 0.0062,0.006 0.01033,0.0103 0.01239,0.0124 0.02891,0.0269 0.0413,0.0475 0.01652,0.0248 0.01859,0.0558 0.01033,0.0826 -0.01446,0.0454 -0.05576,0.062 -0.07641,0.0702 -0.0021,0 -0.0041,0.002 -0.0062,0.002 -0.02478,0.0124 -0.04957,0.0248 -0.07228,0.0392 -0.23337,0.12392 -0.499783,0.27468 -0.722827,0.46675 -0.0083,0.006 -0.02065,0.0186 -0.04131,0.0268 0,0 0,0 0,0 -0.01652,0.004 -0.02891,0.006 -0.0413,0.006 z m -0.216848,-1.57783 c 0.06196,0.25402 0.095,0.51424 0.128043,0.7662 0.01859,0.14663 0.03924,0.29739 0.06402,0.44402 0.0083,0.0434 0.01446,0.0888 0.02891,0.13217 0.0021,0.004 0.0021,0.0103 0.0041,0.0165 0.0021,0.006 0.0041,0.0165 0.0083,0.0268 0.227174,-0.18793 0.485327,-0.33043 0.710436,-0.45228 0.01033,-0.006 0.02272,-0.0124 0.03304,-0.0186 -0.04543,-0.0496 -0.09293,-0.0971 -0.140436,-0.14663 -0.105326,-0.10946 -0.216848,-0.21685 -0.326305,-0.32217 -0.165217,-0.15283 -0.336631,-0.30153 -0.510109,-0.44609 z"
         id="path107"
         inkscape:connector-curvature="0" />
      <path
         style="fill:#d45500;fill-opacity:0.95686275;stroke-width:0.02065222"
         d="m 87.951795,-564.28337 c -0.02272,0 -0.04337,-0.002 -0.05989,-0.004 -0.0041,0 -0.0083,0 -0.01239,-0.002 -0.0537,-0.004 -0.105327,-0.0124 -0.152827,-0.0227 -0.148696,-0.0289 -0.299457,-0.062 -0.444022,-0.095 -0.287066,-0.0661 -0.582393,-0.13217 -0.875655,-0.15489 -0.01859,-0.002 -0.07848,-0.0103 -0.109456,-0.0578 -0.01652,-0.0268 -0.02272,-0.0578 -0.01239,-0.0888 0.01239,-0.0392 0.04337,-0.0578 0.05576,-0.064 0.239566,-0.14457 0.487393,-0.28087 0.73935,-0.40685 0.13837,-0.0682 0.28087,-0.1363 0.421305,-0.19826 0.07022,-0.031 0.1425,-0.062 0.214783,-0.0929 0.0041,-0.002 0.0083,-0.004 0.01239,-0.006 0.01652,-0.008 0.03511,-0.0165 0.05783,-0.0227 0.02891,-0.006 0.05783,0 0.08054,0.0186 0.03717,0.0289 0.03924,0.0743 0.03924,0.095 0,0.002 0,0.004 0,0.006 0.0041,0.0268 0.0083,0.0537 0.01033,0.0826 0.03717,0.26229 0.08467,0.56381 0.187935,0.84055 0.0041,0.008 0.01033,0.0269 0.01033,0.0475 0,0 0,0 0,0 0,0.0145 -0.0021,0.0268 -0.0062,0.0392 -0.02478,0.0743 -0.09707,0.0867 -0.156957,0.0867 z m -1.39609,-0.42544 c 0.260218,0.031 0.514241,0.0888 0.762067,0.14457 0.144566,0.033 0.291197,0.0661 0.437827,0.095 0.04337,0.008 0.0888,0.0165 0.13424,0.0186 0.0041,0 0.01033,0 0.01652,0.002 0.0062,0 0.01652,0.002 0.02891,0.002 -0.09707,-0.27673 -0.142501,-0.57 -0.177609,-0.82402 -0.0021,-0.0124 -0.0041,-0.0248 -0.0041,-0.0372 -0.06196,0.0268 -0.123913,0.0537 -0.18587,0.0805 -0.13837,0.062 -0.278805,0.12804 -0.415109,0.1962 -0.202392,0.10119 -0.402719,0.20858 -0.59685,0.32217 z"
         id="path109"
         inkscape:connector-curvature="0" />
      <path
         style="fill:#d45500;fill-opacity:0.95686275;stroke-width:0.02065222"
         d="m 87.708099,-565.78685 c -0.05576,0 -0.113587,-0.0331 -0.14663,-0.0516 -0.0041,-0.002 -0.0083,-0.004 -0.01033,-0.006 -0.0475,-0.0248 -0.09087,-0.0558 -0.130109,-0.0826 -0.123913,-0.0867 -0.247826,-0.17967 -0.365544,-0.26848 -0.235435,-0.17761 -0.477066,-0.35935 -0.735219,-0.49978 -0.01652,-0.008 -0.06609,-0.0413 -0.07641,-0.0971 -0.0062,-0.031 0.0041,-0.0619 0.02478,-0.0847 0.02685,-0.031 0.06402,-0.0351 0.07641,-0.0351 0.278805,-0.033 0.559675,-0.0558 0.840545,-0.0681 0.154892,-0.006 0.311849,-0.008 0.46674,-0.008 0.07848,0 0.154892,0.002 0.23337,0.004 0.0041,0 0.01033,0 0.01446,0 0.01859,0 0.03924,-0.002 0.06196,0.004 0.02891,0.006 0.05163,0.0248 0.06609,0.0496 0.02272,0.0413 0.0062,0.0847 -0.0021,0.10326 0,0.002 -0.0021,0.004 -0.0021,0.006 -0.0083,0.0269 -0.01652,0.0537 -0.02272,0.0785 -0.07435,0.25402 -0.154892,0.54935 -0.173479,0.84467 0,0.0103 -0.0021,0.0268 -0.01033,0.0475 -0.0062,0.0124 -0.01239,0.0248 -0.02272,0.0331 -0.02891,0.0227 -0.05783,0.031 -0.08674,0.031 z m -1.193698,-0.98305 c 0.223044,0.13424 0.433697,0.2912 0.636088,0.44609 0.117718,0.0888 0.239566,0.17967 0.361414,0.26641 0.03511,0.0248 0.07435,0.0516 0.113587,0.0723 0.0041,0.002 0.0083,0.004 0.01446,0.008 0.0041,0.002 0.01446,0.008 0.02478,0.0124 0.02478,-0.29326 0.103261,-0.57827 0.175543,-0.82403 0.0041,-0.0124 0.0062,-0.0248 0.01033,-0.0351 -0.06609,-0.002 -0.13424,-0.002 -0.202392,-0.002 -0.152827,0 -0.305653,0.002 -0.458479,0.008 -0.22511,0.006 -0.452284,0.0227 -0.675328,0.0475 z"
         id="path111"
         inkscape:connector-curvature="0" />
      <ellipse
         ry="2.8674967"
         rx="3.0168352"
         cy="-565.75494"
         cx="91.3946"
         id="ellipse113"
         style="opacity:1;fill:#ffffff;fill-opacity:0.95686275;stroke:#005030;stroke-width:0.39812177;stroke-miterlimit:4;stroke-dasharray:none;stroke-opacity:0.96482412" />
      <text
         id="text117"
         y="-563.17157"
         x="64.330498"
         style="font-style:normal;font-variant:normal;font-weight:normal;font-stretch:normal;font-size:7.80916643px;line-height:1.25;font-family:serif;-inkscape-font-specification:serif;letter-spacing:0px;word-spacing:0px;fill:#005030;fill-opacity:0.91457286;stroke:none;stroke-width:0.14642185"
         xml:space="preserve"><tspan
           style="font-style:normal;font-variant:normal;font-weight:normal;font-stretch:normal;font-family:serif;-inkscape-font-specification:serif;fill:#005030;fill-opacity:0.91457286;stroke-width:0.14642185"
           y="-563.17157"
           x="64.330498"
           id="tspan115">TOUR</tspan></text>
      <text
         xml:space="preserve"
         style="font-style:normal;font-variant:normal;font-weight:normal;font-stretch:normal;font-size:7.80916643px;line-height:1.25;font-family:Arial;-inkscape-font-specification:Arial;letter-spacing:0px;word-spacing:0px;fill:#005030;fill-opacity:0.91457286;stroke:none;stroke-width:0.14642185"
         x="97.846107"
         y="-563.1106"
         id="text121"><tspan
           id="tspan119"
           x="97.846107"
           y="-563.1106"
           style="font-style:normal;font-variant:normal;font-weight:normal;font-stretch:normal;font-family:SERIF;-inkscape-font-specification:SERIF;fill:#005030;fill-opacity:0.91457286;stroke-width:0.14642185">MIAMI</tspan></text>
    </g>
  </g>
</svg>
